# xmcd
#
# Track frame offsets:
#	150
#	18584
#	36595
#	52643
#	68001
#	84705
#	100702
#	125010
#	142635
#
# Disc length: 2218 seconds
# Revision: 0
# Processed by: cddbd v1.5.2PL0 Copyright (c) Steve Scherf et al.
# Submitted via: dBpowerAMP V12.0
#
DISCID=6e08a809
DTITLE=The Abrams Brothers - Northern Redemption
DYEAR=2011
DGENRE=Country
TTITLE0=Northern Redemption
TTITLE1=Window
TTITLE2=Nothing at All
TTITLE3=Where I'm Bound
TTITLE4=While You Sleep
TTITLE5=Thirteen
TTITLE6=Leaving Love Behind
TTITLE7=Viva La Vida
TTITLE8=Planet of Seasons
EXTD=
EXTT0=
EXTT1=
EXTT2=
EXTT3=
EXTT4=
EXTT5=
EXTT6=
EXTT7=
EXTT8=
PLAYORDER=
